<?xml version="1.0" encoding="UTF-8" standalone="no"?>
<svg
   xmlns:dc="http://purl.org/dc/elements/1.1/"
   xmlns:cc="http://creativecommons.org/ns#"
   xmlns:rdf="http://www.w3.org/1999/02/22-rdf-syntax-ns#"
   xmlns:svg="http://www.w3.org/2000/svg"
   xmlns="http://www.w3.org/2000/svg"
   version="1.1"
   id="svg90336"
   viewBox="0 0 302.00001 38.33566"
   height="38.335659"
   width="302">
  <defs
     id="defs90338">
    <clipPath
       id="clipPath90254"
       clipPathUnits="userSpaceOnUse">
      <path
         id="path90256"
         d="m 0,595.28 841.89,0 L 841.89,0 0,0 0,595.28 Z" />
    </clipPath>
  </defs>
  <metadata
     id="metadata90341">
    <rdf:RDF>
      <cc:Work
         rdf:about="">
        <dc:format>image/svg+xml</dc:format>
        <dc:type
           rdf:resource="http://purl.org/dc/dcmitype/StillImage" />
        <dc:title></dc:title>
      </cc:Work>
    </rdf:RDF>
  </metadata>
  <g
     transform="translate(-406.89746,-661.1819)"
     id="layer1">
    <g
       id="g90250"
       transform="matrix(2.51981,0,0,-2.51981,-503.10257,897.14259)">
      <g
         clip-path="url(#clipPath90254)"
         id="g90252">
        <g
           transform="translate(385.769,82.7471)"
           id="g90258">
          <path
             id="path90260"
             style="fill:#91003c;fill-opacity:1;fill-rule:nonzero;stroke:none"
             d="m 0,0 c -0.434,-0.211 -1.102,-0.252 -1.301,-0.252 l -1.793,0 0,6.945 1.847,0 c 0.202,0 0.715,-0.004 1.231,-0.205 C 0.813,6.162 1.786,5.293 1.786,3.223 1.786,1.15 0.659,0.314 0,0 M 1.327,9.889 C 0.1,10.258 -1.324,10.25 -1.796,10.25 l -4.942,0 c -0.303,0 -0.553,-0.246 -0.553,-0.551 l 0,-12.859 c 0,-0.303 0.25,-0.553 0.553,-0.553 l 4.946,0 c 0.476,0 2.064,-0.039 3.119,0.238 C 3.312,-2.951 5.964,-1.416 5.97,3.27 5.964,7.637 3.328,9.283 1.327,9.889" />
        </g>
        <g
           transform="translate(464.6045,87.5264)"
           id="g90262">
          <path
             id="path90264"
             style="fill:#91003c;fill-opacity:1;fill-rule:nonzero;stroke:none"
             d="m 0,0 c -2.014,0.547 -4.258,0.762 -4.337,1.758 0,0.781 1.249,0.924 1.62,0.924 0.399,0 0.922,-0.071 1.283,-0.311 0.199,-0.131 0.352,-0.266 0.483,-0.523 0.109,-0.215 0.146,-0.452 0.678,-0.446 0.466,0.002 2.761,0 2.761,0 0.298,0 0.624,0.231 0.564,0.641 -0.478,3.291 -3.738,3.676 -5.583,3.676 -2.93,0 -5.824,-1.006 -5.824,-4.229 0,-2.812 2.655,-3.736 4.907,-4.361 2.45,-0.684 2.959,-0.912 2.959,-1.635 0,-0.836 -1.202,-1.15 -1.752,-1.15 -0.688,0 -1.669,0.154 -2.033,0.908 -0.07,0.143 -0.101,0.297 -0.146,0.43 -0.061,0.168 -0.213,0.32 -0.471,0.32 l -3.319,0 c -0.261,0 -0.54,-0.229 -0.515,-0.522 0.258,-3.064 3.529,-4.181 6.176,-4.181 3.117,0 6.363,1.32 6.363,4.678 C 3.814,-1.654 1.863,-0.506 0,0" />
        </g>
        <g
           transform="translate(404.5601,92.9971)"
           id="g90266">
          <path
             id="path90268"
             style="fill:#91003c;fill-opacity:1;fill-rule:nonzero;stroke:none"
             d="m 0,0 -3.089,0 c -0.305,0 -0.639,-0.23 -0.744,-0.518 l -2.843,-7.738 -2.843,7.738 C -9.624,-0.23 -9.958,0 -10.263,0 l -3.09,0 c -0.305,0 -0.468,-0.23 -0.363,-0.518 l 4.753,-12.925 c 0.104,-0.286 0.438,-0.52 0.741,-0.52 l 3.092,0 c 0.304,0 0.638,0.234 0.742,0.52 L 0.364,-0.518 C 0.469,-0.23 0.306,0 0,0" />
        </g>
        <g
           transform="translate(411.3916,92.4795)"
           id="g90270">
          <path
             id="path90272"
             style="fill:#91003c;fill-opacity:1;fill-rule:nonzero;stroke:none"
             d="m 0,0 c -0.104,0.287 -0.439,0.518 -0.742,0.518 l -3.323,0 C -4.369,0.518 -4.703,0.287 -4.806,0 l -4.753,-12.926 c -0.104,-0.285 0.058,-0.519 0.362,-0.519 l 6.656,0 c 0.305,0 0.633,0.234 0.734,0.521 l 0.675,1.977 c 0.099,0.285 -0.147,0.648 -0.451,0.648 l -2.814,0 1.994,5.426 2.958,-8.053 c 0.106,-0.285 0.44,-0.519 0.745,-0.519 l 3.089,0 c 0.304,0 0.468,0.234 0.362,0.519 L 0,0 Z" />
        </g>
        <g
           transform="translate(428.7568,92.9971)"
           id="g90274">
          <path
             id="path90276"
             style="fill:#91003c;fill-opacity:1;fill-rule:nonzero;stroke:none"
             d="m 0,0 -3.092,0 c -0.304,0 -0.552,-0.246 -0.552,-0.551 l 0,-6.701 -4.206,6.783 C -8.008,-0.211 -8.388,0 -8.69,0 l -2.949,0 c -0.295,0 -0.545,-0.254 -0.545,-0.551 l 0,-12.861 c 0,-0.301 0.248,-0.551 0.551,-0.551 l 3.09,0 c 0.306,0 0.552,0.25 0.552,0.551 l 0,6.447 4.058,-6.527 c 0.16,-0.26 0.537,-0.471 0.841,-0.471 l 3.082,0 c 0.342,0 0.562,0.275 0.562,0.551 l 0,12.861 C 0.552,-0.246 0.303,0 0,0" />
        </g>
        <g
           transform="translate(480.5918,89.9268)"
           id="g90278">
          <path
             id="path90280"
             style="fill:#91003c;fill-opacity:1;fill-rule:nonzero;stroke:none"
             d="m 0,0 0,2.52 c 0,0.304 -0.247,0.55 -0.55,0.55 l -11.244,0 c -0.305,0 -0.553,-0.246 -0.553,-0.55 l 0,-2.52 c 0,-0.305 0.248,-0.555 0.553,-0.555 l 3.526,0 0,-9.787 c 0,-0.301 0.249,-0.551 0.553,-0.551 l 3.092,0 c 0.304,0 0.55,0.25 0.55,0.551 l 0,9.787 3.523,0 C -0.247,-0.555 0,-0.305 0,0" />
        </g>
        <g
           transform="translate(441.9541,92.9971)"
           id="g90282">
          <path
             id="path90284"
             style="fill:#91003c;fill-opacity:1;fill-rule:nonzero;stroke:none"
             d="m 0,0 -11.243,0 c -0.304,0 -0.553,-0.246 -0.553,-0.551 l 0,-2.519 c 0,-0.305 0.249,-0.555 0.553,-0.555 l 3.526,0 0,-9.787 c 0,-0.301 0.248,-0.551 0.551,-0.551 l 3.092,0 c 0.305,0 0.553,0.25 0.553,0.551 l 0,9.787 3.521,0 c 0.303,0 0.552,0.25 0.552,0.555 l 0,2.519 C 0.552,-0.246 0.303,0 0,0" />
        </g>
        <g
           transform="translate(454.6084,92.9971)"
           id="g90286">
          <path
             id="path90288"
             style="fill:#91003c;fill-opacity:1;fill-rule:nonzero;stroke:none"
             d="m 0,0 -10.695,0 c -0.304,0 -0.551,-0.246 -0.551,-0.551 l 0,-12.861 c 0,-0.301 0.247,-0.551 0.551,-0.551 l 10.695,0 c 0.305,0 0.554,0.25 0.554,0.551 l 0,2.521 c 0,0.305 -0.249,0.555 -0.554,0.555 l -7.051,0 0,1.914 6.003,0 c 0.304,0 0.552,0.248 0.552,0.551 l 0,2.242 c 0,0.303 -0.248,0.551 -0.552,0.551 l -6.003,0 0,1.453 7.051,0 c 0.305,0 0.554,0.25 0.554,0.555 l 0,2.519 C 0.554,-0.246 0.305,0 0,0" />
        </g>
        <g
           transform="translate(376.25,92.9971)"
           id="g90290">
          <path
             id="path90292"
             style="fill:#91003c;fill-opacity:1;fill-rule:nonzero;stroke:none"
             d="M 0,0 -5.016,0 C -5.32,0 -5.707,-0.205 -5.877,-0.455 l -8.758,-13.049 c -0.17,-0.254 -0.059,-0.459 0.244,-0.459 l 7.637,0 c 0.304,0 0.69,0.205 0.86,0.457 0,0 1.418,2.041 1.593,2.315 0.173,0.273 0.167,0.718 -0.25,0.718 l -3.199,0 4.106,6.09 0,-9.029 c 0,-0.301 0.249,-0.551 0.553,-0.551 l 3.091,0 c 0.303,0 0.553,0.25 0.553,0.551 l 0,12.861 C 0.553,-0.246 0.303,0 0,0" />
        </g>
        <g
           transform="translate(479.5537,79.0342)"
           id="g90294" />
        <g
           transform="translate(479.749,80.8584)"
           id="g90298" />
      </g>
    </g>
  </g>
</svg>
